<svg xmlns="http://www.w3.org/2000/svg" viewBox="0 0 100 100">
  <g id="figure">
    <g>
      <path d="M24.65,51.59a1.57,1.57,0,0,1-.13-.47A3.62,3.62,0,0,0,24.65,51.59Z" fill="none" stroke="#e79170" stroke-linecap="round" stroke-linejoin="round" stroke-width="0.78"/>
      <path d="M24.49,50.43v.33a.71.71,0,0,1,0-.14A1.15,1.15,0,0,1,24.49,50.43Z" fill="none" stroke="#e79170" stroke-linecap="round" stroke-linejoin="round" stroke-width="0.78"/>
      <path d="M24.53,50.1s0,.09,0,.14a.44.44,0,0,0,0,.1A2,2,0,0,1,24.53,50.1Z" fill="none" stroke="#e79170" stroke-linecap="round" stroke-linejoin="round" stroke-width="0.78"/>
      <path d="M26.84,53.56l-.11,0-.25-.08Z" fill="none" stroke="#e79170" stroke-linecap="round" stroke-linejoin="round" stroke-width="0.78"/>
      <path d="M26.48,53.46l.25.08.11,0Z" fill="none" stroke="#e79170" stroke-linecap="round" stroke-linejoin="round" stroke-width="0.78"/>
      <path d="M66.32,82.39V60.05a23.71,23.71,0,0,0,6-6.78v0A23.7,23.7,0,1,0,28.57,36.67a24.22,24.22,0,0,1-.9,3.34c-1.06,2.92-3,9.65-3,9.65l-.05.18v0a1.6,1.6,0,0,1-.05.21s0,0,0,0,0,.09,0,.14a.44.44,0,0,0,0,.1.28.28,0,0,1,0,.09v.45a2,2,0,0,1,0,.24,3.62,3.62,0,0,0,.13.47,2.68,2.68,0,0,0,.13.34,2,2,0,0,0,.1.21l.08.1.14.21.15.18a3.17,3.17,0,0,0,.55.49,2.88,2.88,0,0,0,.68.34l.36.1.13,0a1.38,1.38,0,0,1,.2,0,2.33,2.33,0,0,0,.59,0h0a1.66,1.66,0,0,0,.22,0l.24,0a4.21,4.21,0,0,0-.05.62V64.33A4.84,4.84,0,0,0,30,68.13l0,0a5.36,5.36,0,0,0,.49.34.75.75,0,0,0,.13.06,2.16,2.16,0,0,0,.48.24,3.61,3.61,0,0,0,.65.24l.33.07a1.26,1.26,0,0,0,.27,0,4.27,4.27,0,0,0,1.13,0l.48-.07,10-2a4.83,4.83,0,0,0,2.14-1V82.39" fill="none" stroke="#e79170" stroke-linecap="round" stroke-linejoin="round" stroke-width="2.01"/>
      <g>
        <rect x="45.68" y="24.6" width="7.98" height="1.91" rx="0.9" transform="translate(-3.52 42.61) rotate(-45)" fill="none" stroke="#e79170" stroke-linecap="round" stroke-linejoin="round" stroke-width="0.78"/>
        <rect x="45.36" y="31.81" width="7.98" height="1.91" rx="0.9" transform="translate(-8.71 44.49) rotate(-45)" fill="none" stroke="#e79170" stroke-linecap="round" stroke-linejoin="round" stroke-width="0.78"/>
        <rect x="38.36" y="31.95" width="7.98" height="1.91" rx="0.9" transform="translate(-10.86 39.58) rotate(-45)" fill="none" stroke="#e79170" stroke-linecap="round" stroke-linejoin="round" stroke-width="0.78"/>
        <rect x="38.53" y="24.74" width="7.98" height="1.91" rx="0.9" transform="translate(-5.71 37.59) rotate(-45)" fill="none" stroke="#e79170" stroke-linecap="round" stroke-linejoin="round" stroke-width="0.78"/>
        <rect x="59.62" y="31.69" width="7.98" height="1.91" rx="0.9" transform="translate(-4.45 54.54) rotate(-45)" fill="none" stroke="#e79170" stroke-linecap="round" stroke-linejoin="round" stroke-width="0.78"/>
        <rect x="52.62" y="31.83" width="7.98" height="1.91" rx="0.9" transform="translate(-6.6 49.63) rotate(-45)" fill="none" stroke="#e79170" stroke-linecap="round" stroke-linejoin="round" stroke-width="0.78"/>
        <rect x="52.79" y="24.62" width="7.98" height="1.91" rx="0.9" transform="translate(-1.45 47.64) rotate(-45)" fill="none" stroke="#e79170" stroke-linecap="round" stroke-linejoin="round" stroke-width="0.78"/>
        <rect x="52.66" y="39.05" width="7.98" height="1.91" rx="0.9" transform="translate(-11.7 51.77) rotate(-45)" fill="none" stroke="#e79170" stroke-linecap="round" stroke-linejoin="round" stroke-width="0.78"/>
        <rect x="52.54" y="46.21" width="7.98" height="1.91" rx="0.9" transform="translate(-16.79 53.79) rotate(-45)" fill="none" stroke="#e79170" stroke-linecap="round" stroke-linejoin="round" stroke-width="0.78"/>
        <rect x="59.35" y="53.35" width="7.98" height="1.91" rx="0.9" transform="translate(-19.85 60.69) rotate(-45)" fill="none" stroke="#e79170" stroke-linecap="round" stroke-linejoin="round" stroke-width="0.78"/>
        <rect x="45.39" y="39.19" width="7.98" height="1.91" rx="0.9" transform="translate(-13.92 46.68) rotate(-45)" fill="none" stroke="#e79170" stroke-linecap="round" stroke-linejoin="round" stroke-width="0.78"/>
        <rect x="59.98" y="46.33" width="7.98" height="1.91" rx="0.9" transform="translate(-14.7 59.09) rotate(-45)" fill="none" stroke="#e79170" stroke-linecap="round" stroke-linejoin="round" stroke-width="0.78"/>
        <rect x="60.16" y="39.12" width="7.98" height="1.91" rx="0.9" transform="translate(-9.55 57.1) rotate(-45)" fill="none" stroke="#e79170" stroke-linecap="round" stroke-linejoin="round" stroke-width="0.78"/>
      </g>
    </g>
  </g>
  <g id="circle">
    <circle cx="50" cy="50" r="46.76" fill="none" stroke="#e79170" stroke-miterlimit="10" stroke-width="2.24"/>
  </g>
</svg>
