<svg xmlns="http://www.w3.org/2000/svg" viewBox="0 0 100 100">
  <g id="figure">
    <g>
      <path d="M42.11,22.75V77.32a2.32,2.32,0,1,1-4.64,0V54.21A.8.8,0,0,0,37,53.5a4.76,4.76,0,0,1-2.66-4.29V25.15a4.8,4.8,0,0,1,4.79-4.8,4.19,4.19,0,0,1,1,.12c.11,0,.2,0,.27.05l.05,0,.23.08a2.36,2.36,0,0,1,.7.48A2.31,2.31,0,0,1,42.11,22.75Z" fill="none" stroke="#e79170" stroke-miterlimit="10"/>
      <path d="M42.11,22.75V77.32a2.32,2.32,0,1,1-4.64,0V54.21A.8.8,0,0,0,37,53.5a4.76,4.76,0,0,1-2.66-4.29V25.15a4.8,4.8,0,0,1,4.79-4.8,4.19,4.19,0,0,1,1,.12c.11,0,.2,0,.27.05l.05,0,.23.08a2.36,2.36,0,0,1,.7.48A2.31,2.31,0,0,1,42.11,22.75Z" fill="none" stroke="#e79170" stroke-miterlimit="10"/>
      <path d="M65.64,30.9v10A9.23,9.23,0,0,1,59,49.68a.8.8,0,0,0-.57.76v27a2,2,0,0,1-4.09,0v-27a.78.78,0,0,0-.56-.76,9.23,9.23,0,0,1-6.53-8.79v-.42a1.69,1.69,0,0,1,0-.28V23.24a2,2,0,0,1,3.49-1.45,2,2,0,0,1,.4.58,2.08,2.08,0,0,1,.19.74V40.25a1.5,1.5,0,0,0,1.5,1.5,1.53,1.53,0,0,0,1.43-.94.72.72,0,0,0,.1-.38V23.24a.81.81,0,0,0,0-.15,2,2,0,0,1,.68-1.38,2,2,0,0,1,1.36-.52,2,2,0,0,1,1.33.5l.11.1A2.07,2.07,0,0,1,58.45,23a.66.66,0,0,0,0,.14s0,17.3,0,17.3a.81.81,0,0,0,.15.45,1.5,1.5,0,0,0,1.35.84,1.52,1.52,0,0,0,1.54-1.51V23.06a1.79,1.79,0,0,1,.19-.69,2,2,0,0,1,1.85-1.18,2,2,0,0,1,1.44.6,2.05,2.05,0,0,1,.61,1.45V30A6.54,6.54,0,0,1,65.64,30.9Z" fill="none" stroke="#e79170" stroke-miterlimit="10"/>
      <path d="M65.64,30.9v10A9.23,9.23,0,0,1,59,49.68a.8.8,0,0,0-.57.76v27a2,2,0,0,1-4.09,0v-27a.78.78,0,0,0-.56-.76,9.23,9.23,0,0,1-6.53-8.79v-.42a1.69,1.69,0,0,1,0-.28V23.24a2,2,0,0,1,3.49-1.45,2,2,0,0,1,.4.58,2.08,2.08,0,0,1,.19.74V40.25a1.5,1.5,0,0,0,1.5,1.5,1.53,1.53,0,0,0,1.43-.94.72.72,0,0,0,.1-.38V23.24a.81.81,0,0,0,0-.15,2,2,0,0,1,.68-1.38,2,2,0,0,1,1.36-.52,2,2,0,0,1,1.33.5l.11.1A2.07,2.07,0,0,1,58.45,23a.66.66,0,0,0,0,.14s0,17.3,0,17.3a.81.81,0,0,0,.15.45,1.5,1.5,0,0,0,1.35.84,1.52,1.52,0,0,0,1.54-1.51V23.06a1.79,1.79,0,0,1,.19-.69,2,2,0,0,1,1.85-1.18,2,2,0,0,1,1.44.6,2.05,2.05,0,0,1,.61,1.45V30A6.54,6.54,0,0,1,65.64,30.9Z" fill="none" stroke="#e79170" stroke-miterlimit="10"/>
    </g>
  </g>
  <g id="circle">
    <circle cx="50" cy="50" r="46.76" fill="none" stroke="#e79170" stroke-miterlimit="10" stroke-width="2.24"/>
  </g>
</svg>
