<svg xmlns="http://www.w3.org/2000/svg" viewBox="0 0 100 100">
  <g id="figure">
    <g>
      <path d="M54.77,31.93a.15.15,0,0,1,.1.06"/>
      <path d="M76,48.23a3.55,3.55,0,0,1-.35,1.45,1,1,0,0,0-.08.15,2.42,2.42,0,0,1-.19.4,3,3,0,0,1-.72.75,3.37,3.37,0,0,1-.45.32,4.66,4.66,0,0,1-.5.24l-.2.08L58.61,57.53c0,.24,0,.48,0,.73V71.63a8.88,8.88,0,0,1-8.4,9A8.64,8.64,0,0,1,41.34,72V58.26c0-.24,0-.48,0-.72L26.44,51.6l-.15-.06a3.39,3.39,0,0,1-.47-.23,2.42,2.42,0,0,1-.48-.33L25,50.62a1.13,1.13,0,0,1-.24-.3A3.7,3.7,0,0,1,24.5,50l-.18-.36a1.74,1.74,0,0,1-.13-.36,3.64,3.64,0,0,1-.16-1,3.77,3.77,0,0,1,.06-.66v0a1.18,1.18,0,0,1,.08-.31,3.21,3.21,0,0,1,.12-.33,3.77,3.77,0,0,1,.56-.95,2.55,2.55,0,0,1,.36-.38,1.55,1.55,0,0,1,.36-.31L45.26,31.88A8,8,0,0,0,42,38.37a8.23,8.23,0,0,0,.93,3.76l-7.73,5.26,9.75,3.88h0a13.69,13.69,0,0,0,10.13,0h0l9.75-3.88-7.72-5.24A8.11,8.11,0,0,0,58,38.37a8,8,0,0,0-.43-2.61,6.86,6.86,0,0,0-.32-.79c-.07-.15-.15-.29-.22-.44a6.55,6.55,0,0,0-.41-.66,8.61,8.61,0,0,0-1-1.19,7,7,0,0,0-.78-.68L74.4,45.27A3.43,3.43,0,0,1,75.75,47a1.44,1.44,0,0,1,.14.53,1.08,1.08,0,0,1,0,.21A2.22,2.22,0,0,1,76,48.23Z" fill="#e79170"/>
      <path d="M58,38.37a8.23,8.23,0,0,1-.93,3.76c-.09.18-.2.34-.3.51A8.39,8.39,0,0,1,55.66,44a8,8,0,0,1-12.77-1.91A8.23,8.23,0,0,1,42,38.37a8,8,0,0,1,3.3-6.49h0l.5-.33a7.74,7.74,0,0,1,2.91-1.08,6.67,6.67,0,0,1,2.62,0,7.66,7.66,0,0,1,2.77,1,.26.26,0,0,1,.13.09l.5.33s0,0,.07.06a.33.33,0,0,1,.1.06,0,0,0,0,1,0,0,7,7,0,0,1,.78.68,8.61,8.61,0,0,1,1,1.19,6.55,6.55,0,0,1,.41.66c.07.15.15.29.22.44a6.86,6.86,0,0,1,.32.79A8.3,8.3,0,0,1,58,38.37Z" fill="#e79170"/>
      <g>
        <polyline points="50.08 20.1 50.8 22.19 48.57 24.13 50.08 27.53" fill="none" stroke="#e79170" stroke-linecap="round" stroke-linejoin="round" stroke-width="1.48"/>
        <polyline points="39.91 21.93 42.28 23.95 41.74 26.23 44.96 28.45" fill="none" stroke="#e79170" stroke-linecap="round" stroke-linejoin="round" stroke-width="1.48"/>
        <polyline points="60.54 21.93 58.09 24.03 58.46 26.56 55.49 28.45" fill="none" stroke="#e79170" stroke-linecap="round" stroke-linejoin="round" stroke-width="1.48"/>
      </g>
    </g>
  </g>
  <g id="circle">
    <circle cx="50" cy="50" r="46.76" fill="none" stroke="#e79170" stroke-miterlimit="10" stroke-width="2.24"/>
  </g>
</svg>
