<svg xmlns="http://www.w3.org/2000/svg" viewBox="0 0 100 100">
  <g id="figure">
    <g>
      <g>
        <path d="M92.67,36.61a2.12,2.12,0,0,1,0,.44,3.13,3.13,0,0,1-3.14,2.74H56.74V59.5l14.8,26.79A3.19,3.19,0,0,1,66,89.37L57.88,74.72,60.4,91.56a3.17,3.17,0,0,1-2.6,3.61h-.14a3.16,3.16,0,0,1-3.55-2.68l-4-26.64-.25-1.73-.27,1.73-4,26.64a3.21,3.21,0,0,1-3.14,2.72h0a2.56,2.56,0,0,1-.47,0,2.91,2.91,0,0,1-.63-.16,3.18,3.18,0,0,1-2.05-3.46l2.52-16.81L33.73,89.37a3.19,3.19,0,1,1-5.58-3.08L43,59.37V39.79H10.43a3.18,3.18,0,0,1-3.12-2.56,2.51,2.51,0,0,1-.06-.62,3.21,3.21,0,0,1,1-2.35,3.18,3.18,0,0,1,2.15-.84H32.62l-21.32-8a44.89,44.89,0,0,1,3.94-5.32L47.71,32.28a12.57,12.57,0,0,0,4.24,0L84.68,20a43.8,43.8,0,0,1,4,5.33L67.05,33.42H89.49a3.17,3.17,0,0,1,2.26.94A3.23,3.23,0,0,1,92.67,36.61Z" fill="none" stroke="#e79170" stroke-linecap="round" stroke-linejoin="round" stroke-width="1.34"/>
        <circle cx="49.49" cy="20.94" r="6.1" fill="none" stroke="#e79170" stroke-linecap="round" stroke-linejoin="round" stroke-width="1.34"/>
      </g>
      <path d="M95.84,50a45.86,45.86,0,0,1-38,45.18h-.14a44.87,44.87,0,0,1-7.65.66,46.81,46.81,0,0,1-7.55-.62h0l-1.1-.2A45.86,45.86,0,0,1,6,37.23c.28-1,.61-2,1-3a46.21,46.21,0,0,1,8.3-14.14A45.84,45.84,0,0,1,84.68,20a46.37,46.37,0,0,1,8.41,14.34c.33.88.63,1.78.88,2.69A45.39,45.39,0,0,1,95.84,50Z" fill="none" stroke="#e79170" stroke-linecap="round" stroke-linejoin="round" stroke-width="1.34"/>
    </g>
  </g>
  <g id="circle">
    <circle cx="50" cy="50" r="46.76" fill="none" stroke="#e79170" stroke-miterlimit="10" stroke-width="2.24"/>
  </g>
</svg>
