<svg xmlns="http://www.w3.org/2000/svg" viewBox="0 0 100 100">
  <g id="figure">
    <g>
      <path d="M73.2,54.53h2.57a4.53,4.53,0,1,0,0-9.05H73.28a21.76,21.76,0,0,0-1.13-3.76l2.17-1.53a4.5,4.5,0,0,0,1.92-3.69,4.45,4.45,0,0,0-.84-2.61,4.52,4.52,0,0,0-6.3-1.09l-2,1.41a20.59,20.59,0,0,0-3.27-2.63l1-2.68a4.7,4.7,0,0,0,.26-1.51,4.52,4.52,0,0,0-8.79-1.5l-.85,2.42A22.31,22.31,0,0,0,51.92,28q-.48,0-1,0L50,25.38a4.54,4.54,0,0,0-4.28-3.06,4.73,4.73,0,0,0-1.47.25,4.53,4.53,0,0,0-2.8,5.75L42.08,30l2.58,7c.42-.26.85-.48,1.29-.7A14.45,14.45,0,0,1,51.07,35a10,10,0,0,1,1.1-.05,14.07,14.07,0,0,1,2.77.27,14.71,14.71,0,0,1,4.77,1.82,15.28,15.28,0,0,1,2.92,2.32,14.77,14.77,0,0,1,4,7.88,14.83,14.83,0,0,1-.13,5.32,14.85,14.85,0,0,1-8.08,10.24h0a15.41,15.41,0,0,1-2.33.85,14.29,14.29,0,0,1-3.84.51A16.9,16.9,0,0,1,50,64h0a15.81,15.81,0,0,1-2.75-.69h0a14.37,14.37,0,0,1-2.32-1.08l-3.05,8.29-.38,1.12a4.53,4.53,0,0,0,2.8,5.75,4.73,4.73,0,0,0,1.47.25A4.54,4.54,0,0,0,50,74.62l1-3,.84,0a21.9,21.9,0,0,0,3.37-.26l1,2.75a4.53,4.53,0,0,0,8.79-1.5,4.76,4.76,0,0,0-.26-1.52l-1.05-3a20.7,20.7,0,0,0,3.17-2.49L69.1,67.2a4.52,4.52,0,0,0,6.3-1.09,4.45,4.45,0,0,0,.84-2.61,4.5,4.5,0,0,0-1.92-3.69L72,58.21h0A19.84,19.84,0,0,0,73.2,54.53Z" fill="none" stroke="#e79170" stroke-linecap="round" stroke-linejoin="round" stroke-width="1.3"/>
      <circle cx="42.35" cy="49.79" r="4.08" fill="none" stroke="#e79170" stroke-linecap="round" stroke-linejoin="round" stroke-width="1.3"/>
      <circle cx="27.29" cy="40.73" r="4.08" fill="none" stroke="#e79170" stroke-linecap="round" stroke-linejoin="round" stroke-width="1.3"/>
      <circle cx="27.29" cy="59.27" r="4.08" fill="none" stroke="#e79170" stroke-linecap="round" stroke-linejoin="round" stroke-width="1.3"/>
      <polyline points="34.56 39.42 40.15 39.42 42.71 42.94" fill="none" stroke="#e79170" stroke-linecap="round" stroke-linejoin="round" stroke-width="1.3"/>
      <polyline points="34.56 59.79 40.15 59.79 42.71 56.27" fill="none" stroke="#e79170" stroke-linecap="round" stroke-linejoin="round" stroke-width="1.3"/>
      <line x1="19.7" y1="49.67" x2="34.95" y2="49.67" fill="none" stroke="#e79170" stroke-linecap="round" stroke-linejoin="round" stroke-width="1.3"/>
    </g>
  </g>
  <g id="circle">
    <circle cx="50" cy="50" r="46.76" fill="none" stroke="#e79170" stroke-miterlimit="10" stroke-width="2.24"/>
  </g>
</svg>
