<svg xmlns="http://www.w3.org/2000/svg" viewBox="0 0 100 100">
  <g id="figure">
    <g>
      <path d="M38.37,30.79v1.83a1.09,1.09,0,0,1-1.09,1.09H34.7v2.58a1.09,1.09,0,0,1-1.09,1.09H31.78a1.09,1.09,0,0,1-1.09-1.09V33.71H28.11A1.09,1.09,0,0,1,27,32.62V30.79a1.09,1.09,0,0,1,1.09-1.09h2.58V27.11A1.08,1.08,0,0,1,31.78,26h1.83a1.08,1.08,0,0,1,1.09,1.08V29.7h2.58A1.09,1.09,0,0,1,38.37,30.79Z" fill="#e79170"/>
      <g>
        <circle cx="50.38" cy="47.64" r="3.08" fill="#e79170"/>
        <path d="M62.59,43.29v6.28a1,1,0,0,1-.05.35,1.57,1.57,0,0,1-.25.61,2.38,2.38,0,0,1-.26.31l-8,7.38v9l4.21,11.09a1.7,1.7,0,0,1-3.19,1.2l-3.54-9.33H49.24l-3.53,9.33a1.7,1.7,0,1,1-3.18-1.2l4.2-11.09v-9l-8-7.37s0,0-.06-.07a2.15,2.15,0,0,1-.23-.28.75.75,0,0,1-.1-.2.06.06,0,0,1,0,0,.39.39,0,0,1,0-.09.64.64,0,0,1-.06-.18.07.07,0,0,1,0-.06.59.59,0,0,1,0-.14,0,0,0,0,1,0-.06.39.39,0,0,1,0-.15V42.88a12.18,12.18,0,0,0,3.41-2.94v8.89l5.15,4.75H54l5.15-4.74v-8A11.84,11.84,0,0,0,62.59,43.29Z" fill="#e79170"/>
        <path d="M79.79,32.51a12,12,0,0,1-17.2,10.78,11.84,11.84,0,0,1-3.41-2.49A11,11,0,0,1,58,39.35H42c-.13.2-.28.39-.43.59a12.18,12.18,0,0,1-3.41,2.94,11.8,11.8,0,0,1-6,1.61,12,12,0,0,1-.54-23.94,4.78,4.78,0,0,1,.54,0H67.82a8.44,8.44,0,0,1,.87,0A12,12,0,0,1,79.79,32.51Z" fill="none" stroke="#e79170" stroke-linecap="round" stroke-linejoin="round" stroke-width="2.19"/>
      </g>
      <g>
        <circle cx="68.85" cy="27.49" r="1.91" fill="#e79170"/>
        <circle cx="68.85" cy="35.91" r="1.91" fill="#e79170"/>
        <circle cx="73.06" cy="31.7" r="1.91" fill="#e79170"/>
        <circle cx="64.65" cy="31.7" r="1.91" fill="#e79170"/>
      </g>
    </g>
  </g>
  <g id="circle">
    <circle cx="50" cy="50" r="46.76" fill="none" stroke="#e79170" stroke-miterlimit="10" stroke-width="2.24"/>
  </g>
</svg>
